<svg width="236" height="3" viewBox="0 0 236 3" fill="none" xmlns="http://www.w3.org/2000/svg">
<path d="M0 1.5C0 0.671573 0.671573 0 1.5 0H8.5C9.32843 0 10 0.671573 10 1.5C10 2.32843 9.32843 3 8.5 3H1.5C0.671573 3 0 2.32843 0 1.5Z" fill="#F8903F"/>
<path d="M14 1.5C14 0.671573 14.6716 0 15.5 0H52.5C53.3284 0 54 0.671573 54 1.5C54 2.32843 53.3284 3 52.5 3H15.5C14.6716 3 14 2.32843 14 1.5Z" fill="#F8903F"/>
<path d="M58 1.5C58 0.671573 58.6716 0 59.5 0H176.5C177.328 0 178 0.671573 178 1.5C178 2.32843 177.328 3 176.5 3H59.5C58.6716 3 58 2.32843 58 1.5Z" fill="#F8903F"/>
<path d="M182 1.5C182 0.671573 182.672 0 183.5 0H220.5C221.328 0 222 0.671573 222 1.5C222 2.32843 221.328 3 220.5 3H183.5C182.672 3 182 2.32843 182 1.5Z" fill="#F8903F"/>
<path d="M226 1.5C226 0.671573 226.672 0 227.5 0H234.5C235.328 0 236 0.671573 236 1.5C236 2.32843 235.328 3 234.5 3H227.5C226.672 3 226 2.32843 226 1.5Z" fill="#F8903F"/>
</svg>
