<svg width="21" height="20" viewBox="0 0 21 20" fill="none" xmlns="http://www.w3.org/2000/svg">
<path d="M10.5022 4.87225C7.66453 4.87225 5.37563 7.16166 5.37563 10C5.37563 12.8383 7.66453 15.1277 10.5022 15.1277C13.3399 15.1277 15.6288 12.8383 15.6288 10C15.6288 7.16166 13.3399 4.87225 10.5022 4.87225ZM10.5022 13.3337C8.66843 13.3337 7.16927 11.8387 7.16927 10C7.16927 8.16133 8.66397 6.6663 10.5022 6.6663C12.3405 6.6663 13.8352 8.16133 13.8352 10C13.8352 11.8387 12.336 13.3337 10.5022 13.3337ZM17.0343 4.6625C17.0343 5.32746 16.4989 5.85853 15.8385 5.85853C15.1737 5.85853 14.6428 5.32299 14.6428 4.6625C14.6428 4.00201 15.1782 3.46647 15.8385 3.46647C16.4989 3.46647 17.0343 4.00201 17.0343 4.6625ZM20.4297 5.87638C20.3539 4.27424 19.988 2.85507 18.8146 1.68582C17.6456 0.516568 16.2267 0.150619 14.6249 0.070289C12.9741 -0.0234297 8.02593 -0.0234297 6.37507 0.070289C4.77775 0.146156 3.3589 0.512105 2.18544 1.68136C1.01199 2.85061 0.650586 4.26978 0.570273 5.87192C0.476576 7.52315 0.476576 12.4724 0.570273 14.1236C0.646124 15.7258 1.01199 17.1449 2.18544 18.3142C3.3589 19.4834 4.77328 19.8494 6.37507 19.9297C8.02593 20.0234 12.9741 20.0234 14.6249 19.9297C16.2267 19.8538 17.6456 19.4879 18.8146 18.3142C19.9835 17.1449 20.3494 15.7258 20.4297 14.1236C20.5234 12.4724 20.5234 7.52761 20.4297 5.87638ZM18.297 15.8953C17.949 16.7701 17.2752 17.4439 16.3963 17.7965C15.08 18.3186 11.9568 18.1981 10.5022 18.1981C9.04769 18.1981 5.91997 18.3142 4.6082 17.7965C3.73369 17.4484 3.05996 16.7745 2.70747 15.8953C2.18544 14.5788 2.30591 11.4549 2.30591 10C2.30591 8.54513 2.18991 5.41671 2.70747 4.10465C3.05549 3.22995 3.72922 2.55606 4.6082 2.2035C5.92443 1.68136 9.04769 1.80185 10.5022 1.80185C11.9568 1.80185 15.0845 1.68582 16.3963 2.2035C17.2708 2.5516 17.9445 3.22548 18.297 4.10465C18.819 5.42118 18.6985 8.54513 18.6985 10C18.6985 11.4549 18.819 14.5833 18.297 15.8953Z" fill="#FBFBFB"/>
</svg>
