<svg width="18" height="20" viewBox="0 0 18 20" fill="none" xmlns="http://www.w3.org/2000/svg">
<path d="M17.5 8.20169C15.7798 8.2058 14.1017 7.66934 12.7029 6.6681V13.6511C12.7024 14.9444 12.3071 16.2068 11.5698 17.2694C10.8325 18.332 9.78832 19.1442 8.57694 19.5974C7.36555 20.0505 6.04469 20.1231 4.79095 19.8053C3.53722 19.4876 2.41038 18.7946 1.56111 17.8192C0.711837 16.8437 0.180616 15.6323 0.0384769 14.3468C-0.103663 13.0613 0.150055 11.763 0.765703 10.6256C1.38135 9.48819 2.32959 8.56583 3.48361 7.98185C4.63764 7.39788 5.94246 7.18013 7.22358 7.35772V10.8699C6.63734 10.6855 6.00781 10.6911 5.42491 10.8858C4.84201 11.0805 4.33554 11.4544 3.97783 11.9541C3.62012 12.4539 3.42946 13.0538 3.43308 13.6684C3.4367 14.2829 3.63442 14.8806 3.99799 15.376C4.36156 15.8715 4.8724 16.2394 5.45755 16.4272C6.04271 16.6151 6.67225 16.6132 7.25629 16.4219C7.84032 16.2306 8.34897 15.8597 8.70961 15.3621C9.07025 14.8645 9.26442 14.2657 9.26441 13.6511V0H12.7029C12.7005 0.290363 12.7248 0.580329 12.7756 0.866235C12.8951 1.50447 13.1435 2.11163 13.5057 2.65057C13.8679 3.1895 14.3362 3.64889 14.8821 4.00062C15.6586 4.51407 16.569 4.78774 17.5 4.78754V8.20169Z" fill="#FBFBFB"/>
</svg>
