<svg width="3" height="236" viewBox="0 0 3 236" fill="none" xmlns="http://www.w3.org/2000/svg">
<path d="M1.5 236C0.671573 236 0 235.328 0 234.5L0 227.5C0 226.672 0.671573 226 1.5 226C2.32843 226 3 226.672 3 227.5L3 234.5C3 235.328 2.32843 236 1.5 236Z" fill="#F8903F"/>
<path d="M1.5 222C0.671573 222 0 221.328 0 220.5L0 183.5C0 182.672 0.671573 182 1.5 182C2.32843 182 3 182.672 3 183.5L3 220.5C3 221.328 2.32843 222 1.5 222Z" fill="#F8903F"/>
<path d="M1.5 178C0.671573 178 0 177.328 0 176.5L0 59.5C0 58.6716 0.671573 58 1.5 58C2.32843 58 3 58.6716 3 59.5L3 176.5C3 177.328 2.32843 178 1.5 178Z" fill="#F8903F"/>
<path d="M1.5 54C0.671573 54 0 53.3284 0 52.5L0 15.5C0 14.6716 0.671573 14 1.5 14C2.32843 14 3 14.6716 3 15.5L3 52.5C3 53.3284 2.32843 54 1.5 54Z" fill="#F8903F"/>
<path d="M1.5 10C0.671573 10 0 9.32843 0 8.5L0 1.5C0 0.671573 0.671573 0 1.5 0C2.32843 0 3 0.671573 3 1.5L3 8.5C3 9.32843 2.32843 10 1.5 10Z" fill="#F8903F"/>
</svg>
